<?xml version="1.0" encoding="utf-8"?>
<!-- Generator: Adobe Illustrator 23.0.5, SVG Export Plug-In . SVG Version: 6.00 Build 0)  -->
<svg version="1.1" id="Layer_1" xmlns="http://www.w3.org/2000/svg" xmlns:xlink="http://www.w3.org/1999/xlink" x="0px" y="0px"
	 viewBox="0 0 324.8 126.6" style="enable-background:new 0 0 324.8 126.6;" xml:space="preserve">
<style type="text/css">
	.st0{fill:#006633;}
</style>
<g>
	<path class="st0" d="M44.2,75.8c0,0-1.4,0-1.4-1.2v-5.5c1.4-0.1,7-1,7-8c0-1.8-1.5-3.9-3.3-3.9c-3,0-6.4,2-6.4,8.6v8.9
		c0,1-1.2,1.1-1.2,1.1v0.6h5.3L44.2,75.8z M45.6,58.7c0.8,0,1.6,1.6,1.6,4.6c0,2.8-2,4.7-4.5,4.6C42.7,67.8,42.4,58.7,45.6,58.7
		 M73.2,69.6c0-5.6-1.1-9.5-1.3-10.2c-0.4-1.5,1.5-1.5,1.5-1.5v-0.7h-5.8l0,0.7c0,0,1.8-0.1,2,1.9c0.1,0.6,1,4.4,1,9.4
		c0,0,0.1,5.3-1.8,5.3c-1.9,0-2.4-3.6-1.7-7.3l-0.8-0.1c0,0-0.6,1.9-0.6,3.8c0,2.7,1.2,5.5,3.5,5.5C71.5,76.6,73.2,75.1,73.2,69.6
		 M81.8,76.4c4.6,0,5.9-6,5.9-6l-0.8,0c0,0-1.7,4.8-4.2,4.8c-5.5,0-5.9-17.2,0.3-17.2c1.4,0,2.2,1.9,2.2,5.2c0,2.8-0.7,5.3-1.8,5.3
		c-0.9,0-1.5-0.8-1.5-1.9c0-0.8,0.2-1.7,0.9-2.1L82.2,64c-0.9,0.4-1.4,1.6-1.4,2.6c0,1.5,0.9,2.6,2.3,2.6c2.3,0,4.7-2.4,4.7-7.6
		c0-3.8-2.4-4.7-4.3-4.7c-2.9,0-7.2,3.2-7.2,11.5C76.2,73.7,79.1,76.4,81.8,76.4 M58.4,62.5c0,0,1.5,11.5,1.5,12.1
		c0.1,1.1-1.1,1.2-1.1,1.2l0,0.5h5.4v-0.6c0,0-1.1,0.1-1.3-1.6L60.8,59c0.1-0.8,0.6-1,1-1v-0.8c0,0-4.8,0-5.7,0
		c-0.9,0-4.9,4.9-4.9,12.2c0,7.3,2.6,6.8,3.1,6.8C55.1,76.3,58.4,74.4,58.4,62.5 M54.6,74.9c-0.7,0-1.1-3.1-1.1-5
		c0-5.7,1.9-11.2,3.7-11.2c0,0,0.1,4.6-0.4,8.9C56.3,71.3,55,74.9,54.6,74.9 M118,74.2L115.9,59c0.1-0.8,0.6-1,1-1v-0.8
		c0,0-4.8,0-5.7,0c-0.9,0-4.9,4.9-4.9,12.3c0,7.3,2.6,6.8,3.1,6.8c0.8,0,4.1-1.9,4.1-13.8c0,0,1.5,11.5,1.5,12.1
		c0.1,1.1-1.1,1.2-1.1,1.2l0,0.5h5.4v-0.6C119.3,75.8,118.2,75.9,118,74.2 M111.9,67.6c-0.4,3.7-1.7,7.3-2.2,7.3
		c-0.7,0-1.1-3.1-1.1-5c0-5.7,1.9-11.2,3.7-11.2C112.3,58.7,112.4,63.3,111.9,67.6 M102.6,74.5c0-4.5-2.8-8.3-6.5-8.3
		c0.2-1.7,1.1-7.9,3.4-7.9c2.2,0,1.2,3.4,0.1,5.3h1.1c0,0,1.8-1.5,1.8-3.9c0-2-1-2.8-2.6-2.8c-4,0-4.8,9-5.2,9v-6.9
		c0-1.5,1.5-1.3,1.5-1.3l0-0.6h-5.7v0.6c0,0,1.5-0.1,1.5,1.3v15.4c0,1.3-1.6,1.2-1.6,1.2v0.6h5.8l0-0.6c0,0-1.4,0-1.4-1.2
		c0-0.6-0.1-7.1-0.1-7.1c2.9,0,5.1,0.8,5.1,9h4.5v-0.6C104.2,75.8,102.6,76,102.6,74.5"/>
	<path class="st0" d="M214.3,64.4c-2.1,0-3.8,1.4-4.5,2.2v-8.1h1.9c4.3,0,3.6,3.8,3.6,3.8l1.1,0.1l0.5-4.6h-11.4v0.6
		c0,0,1.6,0.1,1.6,1.5v12.1c0,4,2.2,5.4,5.3,5.4c3.9,0,6.1-4.6,6.1-7.6C218.4,65.8,216.6,64.4,214.3,64.4 M249.9,58.2
		c0,0,1.6,0,1.6,1.3v16.6l-4.3,0c0,0,1.4-2.6,1.4-5.1c0-4.6-2.8-6.2-1.3-13.4l-0.6-0.2c0,0-1.8,3.9-1.8,7c0,4.7,2,4.3,2,8
		c0,3.6-4.8,3.6-4.8,3.6c0,0,0-15.7,0-16.2c0,0,0-0.2,0-0.2c0-1.4,1.4-1.4,1.4-1.4v-0.6h-5.9v0.6c0,0,1.6,0.2,1.6,1.4v15.4
		c0,1.3-1.6,1.4-1.6,1.4V77h18.3l-0.1-0.6c0,0-1.3-0.1-1.4-1.3c0,0,0-0.1,0-0.1c0-0.6,0-15.3,0-15.4c0-1.4,1.4-1.5,1.4-1.5v-0.6
		h-5.9V58.2z M260.1,57.6l-0.4,4.8l0.9,0.1c0,0,1.2-4,3.1-4l0.7,0c0,0.8,0,9.6,0,9.6c0,0,0,6.9,0,7c-0.1,1.4-1.4,1.4-1.4,1.4v0.6
		h5.9v-0.6c0,0-1.6-0.2-1.6-1.5V58.4l0.7,0c2.4,0,3.1,4.1,3.1,4.1l0.9-0.1l-0.4-4.8H260.1z M286.6,74.7l-2.1-15.1
		c-0.1-0.9,0.7-1.3,1.1-1.3v-0.5c0,0-5,0-5.9,0c-0.9,0-5.1,5-5.1,12.6c0,7.5,2.6,7,3.2,7c0.9,0,4.2-2,4.2-14.1c0,0,1.5,11.4,1.6,12
		c0.1,1.1-1.2,1.4-1.2,1.4l0,0.6h5.5v-0.6C287.9,76.5,286.8,76.5,286.6,74.7 M280.8,62.5c0,0.1,0,0.1,0,0.2
		c-0.1,1.6-0.2,3.7-0.4,5.6c-0.4,3.8-1.8,7.5-2.2,7.5c-0.7,0-1.1-3.2-1.1-5.1c0-5.8,1.9-11.5,3.8-11.5
		C280.9,59.1,280.9,60.5,280.8,62.5 M233.2,74.6l-2.1-15.1c-0.1-0.9,0.6-1.3,1-1.3l0-0.5c0,0-5,0-5.9,0c-0.9,0-5.1,5-5.1,12.6
		c0,7.5,2.6,7,3.2,7c0.9,0,4.2-2,4.2-14.1c0,0,1.5,11.4,1.6,12c0.1,1.1-1.2,1.4-1.2,1.4l0,0.6h5.5v-0.6
		C234.5,76.5,233.4,76.4,233.2,74.6 M227,68.3c-0.5,3.8-1.2,7.5-2.2,7.5c-0.7,0-1.1-3.2-1.1-5.1c0-5.8,1.9-11.5,3.8-11.5
		C227.4,59.1,227.5,63.9,227,68.3 M209.7,73v-5l0,0c0,0,6.2-5.5,6.2,3.2C215.9,77.5,209.7,77.5,209.7,73"/>
	<g>
		<path class="st0" d="M151.9,41.1l0.2-0.1l-1.9-5.9c0.3,0.2,0.6,0.5,1,0.9c0.8,0.7,1.5,1.3,2.2,1.8c0.7,0.5,1.5,0.9,2.5,1.3
			c4.3,1.7,8.3,3.7,12.4,5.8l0.4,0.2l0.1-0.2l-13.5-8.4l-7.2-5.5l-0.2-0.1l0,0.2c0,0-0.5,3.2,0.4,5.4
			C149.4,38.7,151.9,41.1,151.9,41.1"/>
		<path class="st0" d="M123.3,44c2,0.6,6.8,0.8,10.5,0.9c1.5,0.1,2.8,0.1,3.7,0.2c3.2,0.3,6.5,0.2,9.8,0.2c5.3,0,10.6-0.1,15.8,1
			c4.1,0.9,6,3.8,6,3.8l0.1,0.1l0.1-0.1c0,0,0,0,0-0.2l0,0l-0.1-0.1c-0.1-0.3-0.4-0.9-1.2-2.1c-3.1-4.9-15.6-4.8-20.3-4.7l-0.2,0
			c-4.9,0-18.8-1.6-29.8-4.7c-7-2-12.7-4.7-14.2-8l-0.1-0.3l-0.1,0.3c0,0-0.4,0.9,0.5,2.9c2.6,5.9,13.5,9,19,10.6L123.3,44z"/>
		<path class="st0" d="M144,49.3c1.6-0.1,8.3,0.1,8.3,0.1l0-0.3l-8.7-1.2c-2.4-0.3-5.2-0.4-8-0.4c-3.4,0-7-0.1-10.6-0.6
			c-2.9-0.4-4.7-1.7-4.7-1.7l-0.2-0.2l0,0.3c0,0,0.3,2.4,2.4,3.3l0,0l0.4,0.2l0,0l0.4,0.2l0,0c5.6,2.3,9,1.8,13.7,1.1
			C138.9,49.8,141.2,49.5,144,49.3"/>
		<path class="st0" d="M141.4,55.9c1.8-0.2,3.5-0.5,5-0.7c1.1-0.2,2-0.3,2.6-0.4c1.1-0.1,6.1-0.1,6.2-0.1l0-0.3l-6.4-0.6
			c-1.8-0.2-3.8-0.2-5.9-0.1c-2.5,0-5.2,0.1-7.8-0.2c-0.4,0-0.8-0.1-1.1-0.2c-0.3-0.1-0.6-0.2-0.9-0.3c-0.9-0.3-1.4-0.6-1.4-0.6
			l-0.3-0.2l0,0.3C131.8,56.2,136.7,56.4,141.4,55.9"/>
		<path class="st0" d="M150.2,60.3c0.6-0.1,3.2-0.4,3.2-0.4l0-0.3l-3.5-0.1c-1,0-2,0.1-3.1,0.2c-1.3,0.2-2.7,0.3-4.1,0.3
			c-1.2,0-2.1-0.5-2.1-0.5l-0.2,0.2c0,0,0.6,1.1,1.6,1.4c2.9,0.9,4.1,0.5,5.8-0.1C148.4,60.8,149.2,60.5,150.2,60.3"/>
		<path class="st0" d="M161.2,66.5c-2.8,0.3-5.9-0.1-8.4-0.7c-2.5-0.6-4.5-1.3-5.1-1.5c0,0,0,0,0,0l-0.2-0.1l-0.1-0.1l-0.1,0.2
			c0,0,0,0.1,0.1,0.1l0,0c0,0,2.4,1.4,4.7,2.6c0.9,0.5,1.8,0.9,2.5,1.2c0.7,0.3,1.2,0.4,1.6,0.5h0c0.4,0,0.8,0.1,1.3,0.2
			c2.5,0.4,6.5,1.1,9.4-1.1c1.1-0.8,2.1-2.5,2.8-4.3c0.7-1.9,1.1-3.9,0.8-5.2c-0.3-1.8-0.8-3.6-0.8-3.6l-0.3,0.1
			C170.4,63.2,166.2,66,161.2,66.5"/>
		<path class="st0" d="M149.5,94.1c-0.5-0.2-1-0.4-1.6-0.6c-4.4-1.6-11.3-4.2-12.4-8.6c-2.1-8.3,2.6-11,8.6-14.6
			c0.6-0.4,1.3-0.8,1.9-1.2l-0.1-0.3c-2.3,0.5-4.4,1.2-6.2,2.1c-1.9,1-3.6,2.3-5.2,4l-0.2,0.2c-1.7,1.9-2.4,4.6-2.2,7.3
			c0.2,2.7,1.4,5.4,3.5,7.4c0.1,0.1,0.2,0.1,0.2,0.2v0c4.4,3.8,10.8,5.7,17,7.4c1.5,0.4,3.1,0.9,4.5,1.3l4.7,1.4l0.1-0.2
			c-2.8-2.9-5.5-3.7-8.7-4.6C152.4,95,151,94.6,149.5,94.1"/>
		<path class="st0" d="M189.1,45.7c0.1-0.5,0.1-1,0.1-1.4v0c0.1-1.4,0.2-2,1.5-3.3l4-4.1l-0.2-0.2l-5,3.8l0,0
			c-1,1.2-1.6,2.3-1.9,3.5c-0.3,0-0.6,0-0.9,0l-0.2,0c-0.2,0-0.4,0-0.7,0c-0.2,0-0.5,0-0.8-0.1c-0.5-0.1-0.7-0.4-1.1-1.2
			c-0.3-0.5-0.6-1.1-1.2-2c-0.4-0.7-1.2-0.9-2-0.9c-0.8,0-1.7,0.3-2.5,0.7c-0.8,0.4-1.6,0.9-2.3,1.5c-0.8,0.7-1.3,1.6-1.2,2.2l0,0.2
			l0.2-0.1c0,0,3-2.1,3.8-2.5h0c0.3-0.2,0.6-0.2,0.9-0.3h0c0.6,0,1.1,0.1,1.6,0.5c0.5,0.3,0.9,0.8,1.2,1.3v0
			c0.2,0.4,0.3,0.8,0.4,1.3c0,0.1-0.2,0.4-0.5,0.8c-0.5,0.7-1.3,1.6-1.1,2.6l0.1,0.7l0.1,0.7c0.5,3.1,0.8,5.4,0.5,7.3
			c-0.3,1.9-1.1,3.4-2.8,5c-0.7,0.7-1.5,1.3-2.2,1.8c-2.3,1.8-4.1,3.2-3.5,6.9c0,0,0,0,0,0l0.3,0l0,0l0,0c0-0.2,0-1.3,2.2-3.1
			c1.5-1.2,2.7-2.2,3.8-3c0.7-0.6,1.4-1.1,2-1.6c4-3.3,2.4-11.2,1.6-14.6v0l0,0c-0.2-1,0-1.1,0.1-1.1l0,0l0,0
			c0.4-0.2,0.9-0.3,1.4-0.5c0.9-0.3,1.9-0.6,2.6-1c-0.1,1.5,0.3,3.2,1.1,5.1l0,0l4.4,9.4l0,0c0,0,1.8,2.3,1.4,5.1
			c-0.2,1.7-0.9,3-2.4,4c-1.5,1-3.9,1.7-7.5,2.3l-30.8-1.7c-1.9-0.3-5.1,0.3-8.3,1.6c-2.1,0.9-4.1,2-5.7,3.5
			c-1.6,1.5-2.8,3.3-3.1,5.5c-0.2,1.4,0,2.9,0.7,4.6c0.5,1.3,1.2,2.5,2.2,3.5c0.9,1,2,1.8,3.4,2.3c2,0.7,4.4,1.2,6.2,1.6
			c0.6,0.1,1.1,0.2,1.5,0.3l0,0l0,0l0.1-0.3c-2.4-0.6-5.3-1.6-7.7-3.3c-2.4-1.6-4.3-3.8-4.4-6.8c0-0.2,0-0.4,0-0.5
			c0.1-2.8,1.9-5.2,4.3-6.9c2.4-1.7,5.4-2.7,7.6-2.9c0.2,0,0.4,0,0.7,0l20.1,0.4c1.1,0.1,2.4,0.3,3.7,0.4c6,0.8,13.4,1.8,18.2-1.7
			c6.1-4.4,3-10.3-0.2-16.2C191.1,51.7,189.5,48.6,189.1,45.7"/>
		<path class="st0" d="M151.8,83c0.6-0.5,1.2-1,1.8-1.5c0.5-0.5,1-0.9,1.4-1.4c0.5-0.6,0.8-1.1,1.1-1.5c0.2-0.4,0.4-0.6,0.6-0.8v0
			c0.8-0.9,1.1-2.9,1.1-2.9l-0.2-0.1c0,0-1.9,2.4-2.8,3.9c-3.2,4.8-7.2,2.5-8.8,1.6c-0.4-0.3-0.7-0.4-0.9-0.3v0
			c-0.2,0.1-0.1,0.4,0.4,1.1c0.1,0.2,0.3,0.5,0.5,0.8c1.2,2.1,3.5,6.4,5.9,7.1c1.5,0.5,3-0.4,4.1-4l1.4-4.6l-0.2-0.1
			c0,0-2.2,2.9-3,4.2c-1.1,1.9-2.1,2-2.9,1.5c-0.6-0.3-1.1-1-1.6-1.6c-0.1-0.1-0.2-0.3-0.4-0.4C149.7,84,150.6,83.9,151.8,83"/>
		<path class="st0" d="M164.8,89.2c-0.3-1-0.5-2-0.7-3c-0.2-2-0.1-4.1,0.3-5.7c0.3-1.3,0.7-2.2,1.2-2.7c0.2-0.1,0.3-0.2,0.5-0.3
			l-0.1-0.3c-0.1,0-0.1,0-0.2,0c-0.1,0.1-0.3,0.1-0.4,0.3c-1.3,0.9-2.1,3.2-2.6,5.7c-0.3,1.8-0.5,3.6-0.4,5.3
			c0.1,1.7,0.3,3.1,0.8,3.9c0.1,0.1,0.1,0.2,0.2,0.3c-1.7-0.3-5.2-0.9-6.5-1.6c-0.3-0.2-0.5-0.3-0.4-0.5l3-5.3l0,0l1-2.7l0,0
			l0.7-3.3c0.4-1.1,0.3-1.6,0.3-1.6l-0.3,0l-0.3,1.5c-0.2,0.4-0.4,0.9-0.8,1.6c-0.4,0.7-0.9,1.5-1.6,2.4c-0.7,0.9-1.5,2-2.6,3.3
			c-1.8,2.1-2.9,3.5-2.7,4.7c0.1,1.2,1.5,2.1,4.6,3.2c2.3,0.8,4.9,0.7,7.1,0.7l0.1,0l0.6,0c2,0,2.7-0.1,2.7-0.5
			c0-0.2-0.2-0.4-0.6-0.8C167,93.1,165.6,91.7,164.8,89.2"/>
		<path class="st0" d="M175.6,85.7c-1.1-0.6-2-1.4-2.7-2.3c-0.9-1.1-1.5-2.2-1.9-3.3c-0.3-0.8-0.4-1.5-0.2-2
			c0.1-0.2,0.2-0.4,0.3-0.6l-0.2-0.2c-0.1,0.1-0.2,0.2-0.2,0.3c-0.1,0.1-0.1,0.2-0.1,0.4c-0.3,0.9-0.3,2.1,0.1,3.4
			c0.5,2,1.7,4.3,2.8,5.9c0.6,0.8,1.3,1.2,1.9,1.5c0.2,0.1,0.4,0.2,0.5,0.3c0.1,0.1,0.2,0.2,0.1,0.3c-0.2,0.3-0.8,1-1.7,1.5
			c-0.6,0.3-1.3,0.6-2.1,0.4c-0.8-0.1-1.6-0.7-2.4-1.8c-1.1-1.6-2.1-4.3-2.9-8.8c0-0.1-0.1-0.2-0.1-0.2l0,0c-0.1,0-0.2,0-0.3,0.1
			c-0.1,0.1-0.1,0.2-0.1,0.4c-0.1,0.8,0,2.8,1.2,7.4c1,3.7,2.5,5,4.6,4.8c2-0.2,4.6-1.8,7.7-4.1c1.8-1.3,2.5-1.8,2.2-2.1
			c-0.1-0.2-0.5-0.2-1-0.2C179.7,87,177.7,86.9,175.6,85.7"/>
		<path class="st0" d="M188.1,77.4c-0.1-0.3-0.3-0.6-0.5-0.7c-0.1,0-0.2,0-0.4,0c-0.2,0-0.4,0.1-0.7,0.3c-1.1,0.5-3.1,1.4-5.1,1
			c-0.9-0.2-1.8-0.5-2.7-0.8h0c-1.5-0.6-2.9-1.3-3.8-2c-0.7-0.5-1.2-1-1.3-1.5c0-0.2,0-0.3,0-0.5l-0.3-0.1c0,0,0,0.1,0,0.1
			c0,0.2,0,0.3,0,0.5c0.1,1,0.8,2,1.7,3c1.4,1.5,3.5,2.8,5.2,3.6c0.8,0.4,1.7,0.4,2.3,0.3h0c0.2,0,0.4,0,0.6,0
			c0.2,0,0.3,0.1,0.3,0.2l0,0c0,0.2-0.1,0.5-0.2,0.9c-0.2,0.4-0.5,0.8-1.1,1.3c-0.8,0.6-2,1-3.7,0.5c-1.7-0.6-4-2.1-6.9-5.6h0
			c-0.1-0.1-0.1-0.1-0.2-0.1h0v0c-0.1,0-0.2,0.1-0.2,0.3v0c0,0.1,0,0.3,0.1,0.5c0.2,0.8,1.3,2.5,4.6,5.7c0.3,0.3,0.7,0.6,1,0.8
			c1.6,1.1,3.3,1.2,4.9,0.9c1.6-0.3,3.1-1.2,4.1-2.3c0.3-0.3,0.6-0.7,0.8-1c0.9-1.4,1.4-2.9,1.5-4.1
			C188.2,78.2,188.2,77.8,188.1,77.4z"/>
		<path class="st0" d="M189.3,66.4L189.3,66.4c-0.5,0.4-1.1,0.8-1.9,1.1c-1.7,0.6-6,2.6-6,2.6l0.1,0.3c0.9-0.3,1.9-0.5,2.9-0.7
			c3.6-0.7,7.4-1.4,8.5-5.1c0.6-2.1-1.2-5-3.2-8c-0.8-1.2-1.5-2.4-2.2-3.6h0c-0.6-1-0.8-2.3-1-3.4c-0.1-0.6-0.2-1.2-0.4-1.7l-0.3,0
			c0,0,0,1-0.3,2.5c-0.5,2.4,1.1,4.6,2.6,6.6c0.8,1.2,1.7,2.4,2.1,3.5c0.3,0.9,0.5,1.8,0.5,2.6c0,0.8-0.1,1.5-0.4,1.9
			C190.1,65.6,189.8,66,189.3,66.4"/>
		<path class="st0" d="M201.6,35L201.6,35c-0.1-0.1-1.7-1-3.8,0.1c-2.1,1.1-1.8,1.8-1.8,1.8l0,0.1l0.1,0c0,0,2.2,0.4,4.2-0.1
			C202.5,36.4,201.6,35,201.6,35"/>
		<path class="st0" d="M194.4,38.6L194.4,38.6c0.1,0,1.5,0.8,2.9,1.1c1.6,0.2,1.4-1,1.4-1l0-0.1c0,0-0.9-1.1-2.6-0.9
			C194.3,38,194.4,38.6,194.4,38.6L194.4,38.6z"/>
		<path class="st0" d="M194,40.5c-2.2,0.5-2.1,1.2-2.1,1.2l0,0.1l0.1,0c0,0,1.9,0.8,3.8,0.9c1.9,0.1,2.7,0,2.7,0l0.3,0l-0.2-0.2
			C198.6,42.5,196.1,40.1,194,40.5"/>
		<path class="st0" d="M192.5,37.7L192.5,37.7l0.1,0c0,0,1-1.2,1.5-2.5h0c0.6-1.5-0.7-1.5-0.7-1.5l-0.1,0c0,0-1.2,0.6-1.4,2.2
			C192,37.6,192.5,37.7,192.5,37.7"/>
		<path class="st0" d="M189.4,40.4L189.4,40.4l0.1-0.1c0,0,0.9-1.3,1.2-2.7c0.4-1.6-0.9-1.4-0.9-1.4l-0.1,0c0,0-1.1,0.8-1,2.4
			C188.8,40.3,189.4,40.4,189.4,40.4"/>
	</g>
</g>
</svg>
